<svg id="e37mFRGIlBt1" xmlns="http://www.w3.org/2000/svg" xmlns:xlink="http://www.w3.org/1999/xlink" viewBox="0 0 800 500" shape-rendering="geometricPrecision" text-rendering="geometricPrecision">
<style><![CDATA[
#e37mFRGIlBt4_to {animation: e37mFRGIlBt4_to__to 3500ms linear 1 normal forwards}@keyframes e37mFRGIlBt4_to__to { 0% {transform: translate(763.75px,241.798004px)} 28.571429% {transform: translate(763.75px,281.8px)} 85.714286% {transform: translate(400px,281.8px)} 100% {transform: translate(400px,281.8px)}} #e37mFRGIlBt4_ts {animation: e37mFRGIlBt4_ts__ts 3500ms linear 1 normal forwards}@keyframes e37mFRGIlBt4_ts__ts { 0% {transform: scale(1,1)} 28.571429% {transform: scale(1,1)} 85.714286% {transform: scale(2,2)} 100% {transform: scale(2,2)}} #e37mFRGIlBt7_to {animation: e37mFRGIlBt7_to__to 3500ms linear 1 normal forwards}@keyframes e37mFRGIlBt7_to__to { 0% {transform: translate(681.083008px,301.798004px)} 28.571429% {transform: translate(681.083008px,281.8px)} 85.714286% {transform: translate(400px,281.8px)} 100% {transform: translate(400px,281.8px)}} #e37mFRGIlBt7_ts {animation: e37mFRGIlBt7_ts__ts 3500ms linear 1 normal forwards}@keyframes e37mFRGIlBt7_ts__ts { 0% {transform: scale(1,1)} 28.571429% {transform: scale(1,1)} 85.714286% {transform: scale(2,2)} 100% {transform: scale(2,2)}} #e37mFRGIlBt10_to {animation: e37mFRGIlBt10_to__to 3500ms linear 1 normal forwards}@keyframes e37mFRGIlBt10_to__to { 0% {transform: translate(598.416992px,101.797997px)} 28.571429% {transform: translate(598.416992px,281.8px)} 85.714286% {transform: translate(400px,281.8px)} 100% {transform: translate(400px,281.8px)}} #e37mFRGIlBt10_ts {animation: e37mFRGIlBt10_ts__ts 3500ms linear 1 normal forwards}@keyframes e37mFRGIlBt10_ts__ts { 0% {transform: scale(1,1)} 28.571429% {transform: scale(1,1)} 85.714286% {transform: scale(2,2)} 100% {transform: scale(2,2)}} #e37mFRGIlBt13_to {animation: e37mFRGIlBt13_to__to 3500ms linear 1 normal forwards}@keyframes e37mFRGIlBt13_to__to { 0% {transform: translate(515.75px,341.798004px)} 28.571429% {transform: translate(515.75px,281.8px)} 85.714286% {transform: translate(400px,281.8px)} 100% {transform: translate(400px,281.8px)}} #e37mFRGIlBt13_ts {animation: e37mFRGIlBt13_ts__ts 3500ms linear 1 normal forwards}@keyframes e37mFRGIlBt13_ts__ts { 0% {transform: scale(1,1)} 28.571429% {transform: scale(1,1)} 85.714286% {transform: scale(2,2)} 100% {transform: scale(2,2)}} #e37mFRGIlBt16_to {animation: e37mFRGIlBt16_to__to 3500ms linear 1 normal forwards}@keyframes e37mFRGIlBt16_to__to { 0% {transform: translate(433.083008px,141.798004px)} 28.571429% {transform: translate(433.083008px,281.8px)} 85.714286% {transform: translate(400px,281.8px)} 100% {transform: translate(400px,281.8px)}} #e37mFRGIlBt16_ts {animation: e37mFRGIlBt16_ts__ts 3500ms linear 1 normal forwards}@keyframes e37mFRGIlBt16_ts__ts { 0% {transform: scale(1,1)} 28.571429% {transform: scale(1,1)} 85.714286% {transform: scale(2,2)} 100% {transform: scale(2,2)}} #e37mFRGIlBt19_to {animation: e37mFRGIlBt19_to__to 3500ms linear 1 normal forwards}@keyframes e37mFRGIlBt19_to__to { 0% {transform: translate(350.416992px,261.798004px)} 28.571429% {transform: translate(350.416992px,281.8px)} 85.714286% {transform: translate(400px,281.8px)} 100% {transform: translate(400px,281.8px)}} #e37mFRGIlBt19_ts {animation: e37mFRGIlBt19_ts__ts 3500ms linear 1 normal forwards}@keyframes e37mFRGIlBt19_ts__ts { 0% {transform: scale(1,1)} 28.571429% {transform: scale(1,1)} 85.714286% {transform: scale(2,2)} 100% {transform: scale(2,2)}} #e37mFRGIlBt22_to {animation: e37mFRGIlBt22_to__to 3500ms linear 1 normal forwards}@keyframes e37mFRGIlBt22_to__to { 0% {transform: translate(267.75px,201.8px)} 28.571429% {transform: translate(267.75px,281.8px)} 85.714286% {transform: translate(400px,281.8px)} 100% {transform: translate(400px,281.8px)}} #e37mFRGIlBt22_ts {animation: e37mFRGIlBt22_ts__ts 3500ms linear 1 normal forwards}@keyframes e37mFRGIlBt22_ts__ts { 0% {transform: scale(1,1)} 28.571429% {transform: scale(1,1)} 85.714286% {transform: scale(2,2)} 100% {transform: scale(2,2)}} #e37mFRGIlBt25_to {animation: e37mFRGIlBt25_to__to 3500ms linear 1 normal forwards}@keyframes e37mFRGIlBt25_to__to { 0% {transform: translate(185.082993px,241.798004px)} 28.571429% {transform: translate(185.082993px,281.8px)} 85.714286% {transform: translate(400px,281.8px)} 100% {transform: translate(400px,281.8px)}} #e37mFRGIlBt25_ts {animation: e37mFRGIlBt25_ts__ts 3500ms linear 1 normal forwards}@keyframes e37mFRGIlBt25_ts__ts { 0% {transform: scale(1,1)} 28.571429% {transform: scale(1,1)} 85.714286% {transform: scale(2,2)} 100% {transform: scale(2,2)}} #e37mFRGIlBt28_to {animation: e37mFRGIlBt28_to__to 3500ms linear 1 normal forwards}@keyframes e37mFRGIlBt28_to__to { 0% {transform: translate(102.417px,281.798004px)} 28.571429% {transform: translate(102.417px,281.798004px)} 85.714286% {transform: translate(400px,281.798004px)} 100% {transform: translate(400px,281.798004px)}} #e37mFRGIlBt28_ts {animation: e37mFRGIlBt28_ts__ts 3500ms linear 1 normal forwards}@keyframes e37mFRGIlBt28_ts__ts { 0% {transform: scale(1,1)} 28.571429% {transform: scale(1,1)} 85.714286% {transform: scale(2,2)} 100% {transform: scale(2,2)}}
]]></style>
<g clip-path="url(#e37mFRGIlBt34)"><g><g id="e37mFRGIlBt4_to" transform="translate(763.75,241.798004)"><g id="e37mFRGIlBt4_ts" transform="scale(1,1)"><g transform="translate(0,0)"><g transform="translate(8.25 8.25)"><path d="M8,0C8,4.418,4.418,8,0,8s-8-3.582-8-8s3.582-8,8-8s8,3.582,8,8Z" fill="#0e0885"/></g></g></g></g><g id="e37mFRGIlBt7_to" transform="translate(681.083008,301.798004)"><g id="e37mFRGIlBt7_ts" transform="scale(1,1)"><g transform="translate(0,0)"><g transform="translate(8.25 8.25)"><path d="M8,0C8,4.418,4.418,8,0,8s-8-3.582-8-8s3.582-8,8-8s8,3.582,8,8Z" fill="#0e0885"/></g></g></g></g><g id="e37mFRGIlBt10_to" transform="translate(598.416992,101.797997)"><g id="e37mFRGIlBt10_ts" transform="scale(1,1)"><g transform="translate(0,0)"><g transform="translate(8.25 8.25)"><path d="M8,0C8,4.418,4.418,8,0,8s-8-3.582-8-8s3.582-8,8-8s8,3.582,8,8Z" fill="#0e0885"/></g></g></g></g><g id="e37mFRGIlBt13_to" transform="translate(515.75,341.798004)"><g id="e37mFRGIlBt13_ts" transform="scale(1,1)"><g transform="translate(0,0)"><g transform="translate(8.25 8.25)"><path d="M8,0C8,4.418,4.418,8,0,8s-8-3.582-8-8s3.582-8,8-8s8,3.582,8,8Z" fill="#0e0885"/></g></g></g></g><g id="e37mFRGIlBt16_to" transform="translate(433.083008,141.798004)"><g id="e37mFRGIlBt16_ts" transform="scale(1,1)"><g transform="translate(0,0)"><g transform="translate(8.25 8.25)"><path d="M8,0C8,4.418,4.418,8,0,8s-8-3.582-8-8s3.582-8,8-8s8,3.582,8,8Z" fill="#0e0885"/></g></g></g></g><g id="e37mFRGIlBt19_to" transform="translate(350.416992,261.798004)"><g id="e37mFRGIlBt19_ts" transform="scale(1,1)"><g transform="translate(0,0)"><g transform="translate(8.25 8.25)"><path d="M8,0C8,4.418,4.418,8,0,8s-8-3.582-8-8s3.582-8,8-8s8,3.582,8,8Z" fill="#0e0885"/></g></g></g></g><g id="e37mFRGIlBt22_to" transform="translate(267.75,201.8)"><g id="e37mFRGIlBt22_ts" transform="scale(1,1)"><g transform="translate(0,0)"><g transform="translate(8.25 8.25)"><path d="M8,0C8,4.418,4.418,8,0,8s-8-3.582-8-8s3.582-8,8-8s8,3.582,8,8Z" fill="#0e0885"/></g></g></g></g><g id="e37mFRGIlBt25_to" transform="translate(185.082993,241.798004)"><g id="e37mFRGIlBt25_ts" transform="scale(1,1)"><g transform="translate(0,0)"><g transform="translate(8.25 8.25)"><path d="M8,0C8,4.418,4.418,8,0,8s-8-3.582-8-8s3.582-8,8-8s8,3.582,8,8Z" fill="#0e0885"/></g></g></g></g><g id="e37mFRGIlBt28_to" transform="translate(102.417,281.798004)"><g id="e37mFRGIlBt28_ts" transform="scale(1,1)"><g transform="translate(0,0)"><g transform="translate(8.25 8.25)"><path d="M8,0C8,4.418,4.418,8,0,8s-8-3.582-8-8s3.582-8,8-8s8,3.582,8,8Z" fill="#0e0885"/></g></g></g></g><g transform="translate(15.75 241)"><g transform="translate(8.25 300)"><path d="M8,0C8,4.418,4.418,8,0,8s-8-3.582-8-8s3.582-8,8-8s8,3.582,8,8Z" fill="#0e0885"/></g></g></g><clipPath id="e37mFRGIlBt34"><rect width="800" height="500" rx="0" ry="0"/></clipPath></g></svg>
